<svg xmlns="http://www.w3.org/2000/svg" viewBox="0 0 146.1 104.48"><title>aquarius</title><g id="Layer_2" data-name="Layer 2"><g id="Layer_1-2" data-name="Layer 1"><path d="M86.86,13.38a5,5,0,0,1-.78.61h0l17.15,22a5.05,5.05,0,0,1,.78-.61h0Z" fill="#ffffff"/><path d="M111.22,41.69a4.94,4.94,0,0,1-.5.86L137.55,58.2a4.94,4.94,0,0,1,.51-.86Z" fill="#ffffff"/><path d="M64.71,48.2a4,4,0,0,1-.93.36l8.34,21.75a4,4,0,0,1,.93-.36Z" fill="#ffffff"/><path d="M14.54,79.08,4.45,97.75a4,4,0,0,1,.88.47L15.42,79.56A4,4,0,0,1,14.54,79.08Z" fill="#ffffff"/><path d="M22.92,68.84l-3.66,3.79a4,4,0,0,1,.72.7l3.66-3.79A4,4,0,0,1,22.92,68.84Z" fill="#ffffff"/><path d="M19.15,52.18l-.15.11a4,4,0,0,1-.74.36l5.49,10.43L23.9,63a4,4,0,0,1,.74-.36Z" fill="#ffffff"/><path d="M44,9.51,18.74,45.38a4,4,0,0,1,.82.58L44.85,10.09A4,4,0,0,1,44,9.51Z" fill="#ffffff"/><path d="M57.67,3.43,50.47,5.15a3.94,3.94,0,0,1,.22,1l7.2-1.72A3.94,3.94,0,0,1,57.67,3.43Z" fill="#ffffff"/><path d="M64.75,14.46,63,6.75A4,4,0,0,1,62,7l1.75,7.71A4,4,0,0,1,64.75,14.46Z" fill="#ffffff"/><path d="M80.46,13.8,64.41,41a4,4,0,0,1,.86.51L81.32,14.3A5,5,0,0,1,80.46,13.8Z" fill="#ffffff"/><path d="M78.71,11.44,68.5,16.28h0a4,4,0,0,1,.41.9l10.22-4.85A5,5,0,0,1,78.71,11.44Z" fill="#ffffff"/><circle cx="106.68" cy="39.62" r="4" transform="translate(-4.66 63.17) rotate(-32.32)" fill="#ffffff"/><circle cx="142.1" cy="60.27" r="4" transform="translate(-10.21 85.31) rotate(-32.32)" fill="#ffffff"/><circle cx="65.13" cy="18.43" r="3" transform="matrix(0.85, -0.53, 0.53, 0.85, 0.24, 37.68)" fill="#ffffff"/><circle cx="61.63" cy="3" r="3" transform="translate(7.94 33.42) rotate(-32.32)" fill="#ffffff"/><circle cx="16.87" cy="48.91" r="3" transform="translate(-23.54 16.59) rotate(-32.32)" fill="#ffffff"/><circle cx="16.87" cy="75.83" r="3" transform="translate(-37.93 20.76) rotate(-32.32)" fill="#ffffff"/><circle cx="3" cy="101.48" r="3" transform="translate(-53.79 17.33) rotate(-32.32)" fill="#ffffff"/><circle cx="62.83" cy="44.68" r="3" transform="translate(-14.16 40.51) rotate(-32.32)" fill="#ffffff"/><circle cx="26.04" cy="66.34" r="3" transform="matrix(0.85, -0.53, 0.53, 0.85, -31.43, 24.2)" fill="#ffffff"/><circle cx="83.41" cy="9.76" r="4" transform="translate(7.7 46.11) rotate(-32.32)" fill="#ffffff"/><circle cx="46.72" cy="6.56" r="3" transform="translate(3.73 26) rotate(-32.32)" fill="#ffffff"/><circle cx="74.01" cy="73.83" r="3" transform="translate(-28.01 51.01) rotate(-32.32)" fill="#ffffff"/></g></g></svg>