<svg xmlns="http://www.w3.org/2000/svg" viewBox="0 0 71.67 125.85"><title>cancer</title><g id="Layer_2" data-name="Layer 2"><g id="Layer_1-2" data-name="Layer 1"><path d="M34.12,49.56,26.86,8.79a5,5,0,0,1-1,.17l7.26,40.77A4.94,4.94,0,0,1,34.12,49.56Z" fill="#ffffff"/><path d="M28.63,72.51l4.68-13.15a4.94,4.94,0,0,1-.94-.34L27.69,72.18A4.94,4.94,0,0,1,28.63,72.51Z" fill="#ffffff"/><path d="M7.31,104.3,24,81.32a5,5,0,0,1-.81-.59l-16.68,23A5,5,0,0,1,7.31,104.3Z" fill="#ffffff"/><path d="M64.68,117.86,30.22,80.33a5,5,0,0,1-.74.68l34.47,37.53A5,5,0,0,1,64.68,117.86Z" fill="#ffffff"/><circle cx="25.5" cy="4" r="4" fill="#ffffff"/><circle cx="26.5" cy="77.02" r="4" fill="#ffffff"/><circle cx="34.5" cy="54.52" r="4" fill="#ffffff"/><circle cx="4" cy="108.02" r="4" fill="#ffffff"/><circle cx="67.67" cy="121.85" r="4" fill="#ffffff"/></g></g></svg>