<svg xmlns="http://www.w3.org/2000/svg" viewBox="0 0 136.42 104.15"><title>capricorn</title><g id="Layer_2" data-name="Layer 2"><g id="Layer_1-2" data-name="Layer 1"><path d="M117.48,38.42,71.87,45.2a4,4,0,0,1,.16,1l45.6-6.78A5,5,0,0,1,117.48,38.42Z" fill="#ffffff"/><path d="M131,13.83l1.9-6.88a4,4,0,0,1-1-.25L130,13.58A4,4,0,0,1,131,13.83Z" fill="#ffffff"/><path d="M44,42.51l-23.13-3a4,4,0,0,1-.14,1l23.13,3A4,4,0,0,1,44,42.51Z" fill="#ffffff"/><path d="M84.83,98.53l5.37-6a4,4,0,0,1-.74-.67l-5.37,6A4,4,0,0,1,84.83,98.53Z" fill="#ffffff"/><path d="M13.11,38,8.93,37a4.94,4.94,0,0,1-.24,1l4.19,1A4,4,0,0,1,13.11,38Z" fill="#ffffff"/><path d="M64.2,45.2,51.8,43.55a4,4,0,0,1-.14,1L64,46.19A4,4,0,0,1,64.2,45.2Z" fill="#ffffff"/><path d="M127.69,21.1l-4.12,12.22a5,5,0,0,1,.95.32l4.12-12.2A3.94,3.94,0,0,1,127.69,21.1Z" fill="#ffffff"/><path d="M94.89,86l25.47-43.32a5,5,0,0,1-.86-.51L94,85.51A4,4,0,0,1,94.89,86Z" fill="#ffffff"/><path d="M45,82a4,4,0,0,1-.44.9L78.08,99.81a4,4,0,0,1,.44-.9Z" fill="#ffffff"/><path d="M39.12,77.3,7.58,39.76a5,5,0,0,1-.76.65L38.36,77.95A4,4,0,0,1,39.12,77.3Z" fill="#ffffff"/><circle cx="133.42" cy="3" r="3" fill="#ffffff"/><circle cx="68.03" cy="46.28" r="3" fill="#ffffff"/><circle cx="16.83" cy="39.47" r="3" fill="#ffffff"/><circle cx="122.45" cy="38.19" r="4" fill="#ffffff"/><circle cx="129.42" cy="17.52" r="3" fill="#ffffff"/><circle cx="47.81" cy="43.52" r="3" fill="#ffffff"/><circle cx="41.29" cy="80.65" r="3" fill="#ffffff"/><circle cx="4" cy="36.28" r="4" fill="#ffffff"/><circle cx="92.46" cy="89.19" r="3" fill="#ffffff"/><circle cx="81.83" cy="101.15" r="3" fill="#ffffff"/></g></g></svg>