<svg xmlns="http://www.w3.org/2000/svg" viewBox="0 0 111.63 96.31"><title>scorpio</title><g id="Layer_2" data-name="Layer 2"><g id="Layer_1-2" data-name="Layer 1"><path d="M11.36,63.91l7.79-6.5a4,4,0,0,1-.64-.77l-7.79,6.5A4,4,0,0,1,11.36,63.91Z" fill="#ffffff"/><path d="M55,71.29,51.38,85.36a4,4,0,0,1,1,.24L56,71.53A4,4,0,0,1,55,71.29Z" fill="#ffffff"/><path d="M69.62,32.58,60.89,48.05a4,4,0,0,1,.87.5l8.74-15.48A5,5,0,0,1,69.62,32.58Z" fill="#ffffff"/><path d="M98.69,5.4,85.23,18.51a4,4,0,0,1,.7.71L99.39,6.11A4,4,0,0,1,98.69,5.4Z" fill="#ffffff"/><path d="M104.64,17.63,86.57,20.51a4,4,0,0,1,.17,1l18.07-2.88A4,4,0,0,1,104.64,17.63Z" fill="#ffffff"/><path d="M100.48,27.77,86.63,22.55a3.94,3.94,0,0,1-.36.93l13.85,5.21A4,4,0,0,1,100.48,27.77Z" fill="#ffffff"/><path d="M5.29,72.25l1.3-2.46a4,4,0,0,1-.89-.46l-1.3,2.46A4,4,0,0,1,5.29,72.25Z" fill="#ffffff"/><path d="M11.68,87l-6-8.51a4,4,0,0,1-.82.57l6,8.52A5,5,0,0,1,11.68,87Z" fill="#ffffff"/><path d="M30.26,93.42s0-.07,0-.11a4,4,0,0,1,.11-.89L19.12,91.31h0a5,5,0,0,1-.1,1Z" fill="#ffffff"/><path d="M46.92,89.75,38,91.9a4,4,0,0,1,.23,1l8.94-2.15A4,4,0,0,1,46.92,89.75Z" fill="#ffffff"/><path d="M58.18,55.55,56.71,63.6a4,4,0,0,1,1,.18l1.46-8.06A4,4,0,0,1,58.18,55.55Z" fill="#ffffff"/><path d="M79.14,23.32l-2.73,2.1a5,5,0,0,1,.54.84l2.74-2.1A4,4,0,0,1,79.14,23.32Z" fill="#ffffff"/><circle cx="21.88" cy="54.5" r="3" fill="#ffffff"/><circle cx="14.13" cy="91.31" r="4" fill="#ffffff"/><circle cx="82.75" cy="21.62" r="3" fill="#ffffff"/><circle cx="8" cy="66.06" r="3" fill="#ffffff"/><circle cx="3" cy="75.52" r="3" fill="#ffffff"/><circle cx="34.25" cy="93.31" r="3" fill="#ffffff"/><circle cx="50.88" cy="89.31" r="3" fill="#ffffff"/><circle cx="56.5" cy="67.58" r="3" fill="#ffffff"/><circle cx="59.38" cy="51.75" r="3" fill="#ffffff"/><circle cx="72.5" cy="28.5" r="4" fill="#ffffff"/><circle cx="101.88" cy="3" r="3" fill="#ffffff"/><circle cx="108.63" cy="17.5" r="3" fill="#ffffff"/><circle cx="104" cy="29.62" r="3" fill="#ffffff"/></g></g></svg>