<svg xmlns="http://www.w3.org/2000/svg" viewBox="0 0 118.19 104.05"><title>virgo</title><g id="Layer_2" data-name="Layer 2"><g id="Layer_1-2" data-name="Layer 1"><path d="M31.85,66.75,8.48,75.22a5,5,0,0,1,.34.94l23.36-8.48A4,4,0,0,1,31.85,66.75Z" fill="#ffffff"/><path d="M50.13,66.1a5,5,0,0,1,0-1l-10.43.19a4,4,0,0,1,0,1Z" fill="#ffffff"/><path d="M66.61,39.13,56.7,60.78a5,5,0,0,1,.91.43l9.91-21.64A5,5,0,0,1,66.61,39.13Z" fill="#ffffff"/><path d="M58.45,23.32a5,5,0,0,1-.71.7l7.54,7.63a5,5,0,0,1,.71-.7Z" fill="#ffffff"/><path d="M80.74,39.73l-6.92-3.25a4.94,4.94,0,0,1-.43.9l6.92,3.25A4.94,4.94,0,0,1,80.74,39.73Z" fill="#ffffff"/><path d="M97,31.22l-8.61,7.45a5,5,0,0,1,.66.75L97.7,32A4,4,0,0,1,97,31.22Z" fill="#ffffff"/><path d="M112.81,6.22l0,0L101.88,25.33a4,4,0,0,1,.85.47l0,0L113.67,6.69A4,4,0,0,1,112.81,6.22Z" fill="#ffffff"/><path d="M80.45,66.35l4-19.1a4.94,4.94,0,0,1-1-.2l-4,19.1A4,4,0,0,1,80.45,66.35Z" fill="#ffffff"/><path d="M79.4,82.47l.17-8.37-.42,0a4,4,0,0,1-.58,0l-.17,8.26A5,5,0,0,1,79.4,82.47Z" fill="#ffffff"/><path d="M75,83.56l-16-15a5,5,0,0,1-.69.73l16,15A5,5,0,0,1,75,83.56Z" fill="#ffffff"/><path d="M42.88,90.91l30.51-2.66c0-.06,0-.12,0-.19a5,5,0,0,1,0-.81L42.78,89.92A4,4,0,0,1,42.88,90.91Z" fill="#ffffff"/><path d="M29,97.78l6.86-4.44a3.94,3.94,0,0,1-.54-.84l-6.87,4.45A4.92,4.92,0,0,1,29,97.78Z" fill="#ffffff"/><circle cx="78.28" cy="87.33" r="4" transform="translate(-38.48 98.3) rotate(-53.5)" fill="#ffffff"/><circle cx="100.36" cy="29.01" r="3" transform="translate(17.34 92.42) rotate(-53.5)" fill="#ffffff"/><circle cx="35.73" cy="65.87" r="3" transform="translate(-38.47 55.41) rotate(-53.5)" fill="#ffffff"/><circle cx="4" cy="77.38" r="4" transform="translate(-60.58 34.56) rotate(-53.5)" fill="#ffffff"/><circle cx="55.09" cy="65.51" r="4" transform="translate(-30.34 70.82) rotate(-53.5)" fill="#ffffff"/><circle cx="69.13" cy="34.83" r="4" transform="translate(0.01 69.68) rotate(-53.5)" fill="#ffffff"/><circle cx="54.6" cy="20.14" r="4" transform="translate(5.94 52.05) rotate(-53.5)" fill="#ffffff"/><circle cx="85.01" cy="42.29" r="4" transform="matrix(0.59, -0.8, 0.8, 0.59, 0.44, 85.46)" fill="#ffffff"/><circle cx="79.15" cy="70.13" r="3" transform="translate(-24.31 92.03) rotate(-53.5)" fill="#ffffff"/><circle cx="115.19" cy="3" r="3" transform="translate(44.25 93.81) rotate(-53.5)" fill="#ffffff"/><circle cx="38.89" cy="90.76" r="3" transform="translate(-57.2 68.03) rotate(-53.5)" fill="#ffffff"/><circle cx="24.54" cy="100.05" r="4" transform="translate(-70.48 60.26) rotate(-53.5)" fill="#ffffff"/></g></g></svg>