<svg xmlns="http://www.w3.org/2000/svg" viewBox="0 0 106.5 53.87"><title>aries</title><g id="Layer_2" data-name="Layer 2"><g id="Layer_1-2" data-name="Layer 1"><path d="M30.72,6,74.13,20.57a4.94,4.94,0,0,1,.32-.95L31,5.1A4.94,4.94,0,0,1,30.72,6Z" fill="#ffffff"/><path d="M17.15,34.7l8-25.8a5,5,0,0,1-1-.3l-8,25.8A4,4,0,0,1,17.15,34.7Z" fill="#ffffff"/><path d="M101,45.13l-2.16-5a4,4,0,0,1-.92.39l2.16,5A4.94,4.94,0,0,1,101,45.13Z" fill="#ffffff"/><path d="M94.13,33.74l-11-9.25a5,5,0,0,1-.65.76l11,9.25A4,4,0,0,1,94.13,33.74Z" fill="#ffffff"/><path d="M6.27,47.38l6.64-6a4,4,0,0,1-.68-.73l-6.64,6A4,4,0,0,1,6.27,47.38Z" fill="#ffffff"/><circle cx="26.17" cy="4" r="4" fill="#ffffff"/><circle cx="96.83" cy="36.67" r="3" fill="#ffffff"/><circle cx="79" cy="21.67" r="4" fill="#ffffff"/><circle cx="102.5" cy="49.87" r="4" fill="#ffffff"/><circle cx="3" cy="49.67" r="3" fill="#ffffff"/><circle cx="15.5" cy="38.33" r="3" fill="#ffffff"/></g></g></svg>