<svg xmlns="http://www.w3.org/2000/svg" viewBox="0 0 113.5 93.29"><title>leo</title><g id="Layer_2" data-name="Layer 2"><g id="Layer_1-2" data-name="Layer 1"><path d="M107.54,8.33l-5-3.49a4,4,0,0,1-.57.82l5,3.49A4,4,0,0,1,107.54,8.33Z" fill="#ffffff"/><path d="M26.73,65,7.08,85.38a5,5,0,0,1,.72.7L27.45,65.69A4,4,0,0,1,26.73,65Z" fill="#ffffff"/><path d="M35.11,77.41l-3.6-11.29a4,4,0,0,1-1,.31l3.6,11.29A4,4,0,0,1,35.11,77.41Z" fill="#ffffff"/><path d="M31.88,81.81,8.69,87.61a4.94,4.94,0,0,1,.24,1l23.19-5.8A4,4,0,0,1,31.88,81.81Z" fill="#ffffff"/><path d="M92.08,79a4.94,4.94,0,0,1-.08-.75c0-.09,0-.17,0-.25l-52.26,2.6a4,4,0,0,1,.07.7c0,.1,0,.2,0,.3Z" fill="#ffffff"/><path d="M91.56,57.18a4,4,0,0,1-1,.26l4.58,16.21a5,5,0,0,1,1-.27Z" fill="#ffffff"/><path d="M79.29,45a5,5,0,0,1-.59.81l7.82,5.73a4,4,0,0,1,.58-.81Z" fill="#ffffff"/><path d="M73,25h-.13L74,37.6a5,5,0,0,1,1-.1h0L73.87,24.9A4,4,0,0,1,73,25Z" fill="#ffffff"/><path d="M95.47,4.84,76,18.34a4,4,0,0,1,.57.82L96,5.66A4,4,0,0,1,95.47,4.84Z" fill="#ffffff"/><circle cx="29.83" cy="62.5" r="3" fill="#ffffff"/><circle cx="4" cy="89.29" r="4" fill="#ffffff"/><circle cx="75" cy="42.5" r="4" fill="#ffffff"/><circle cx="73" cy="21" r="3" fill="#ffffff"/><circle cx="99" cy="3" r="3" fill="#ffffff"/><circle cx="97" cy="78.29" r="4" fill="#ffffff"/><circle cx="90" cy="53.5" r="3" fill="#ffffff"/><circle cx="110.5" cy="11" r="3" fill="#ffffff"/><circle cx="35.83" cy="81.33" r="3" fill="#ffffff"/></g></g></svg>