<svg xmlns="http://www.w3.org/2000/svg" viewBox="0 0 100.8 101.02"><title>libra</title><g id="Layer_2" data-name="Layer 2"><g id="Layer_1-2" data-name="Layer 1"><path d="M6.3,28.19a3.93,3.93,0,0,1-.66.75l5.88,5.17a3.94,3.94,0,0,1,.66-.75Z" fill="#ffffff"/><path d="M92.6,67.38l4.07-32a5,5,0,0,1-1-.13l-4.07,32A5,5,0,0,1,92.6,67.38Z" fill="#ffffff"/><path d="M67.83,6.69a4.94,4.94,0,0,1-.62.78L92.62,27.68a5,5,0,0,1,.62-.78Z" fill="#ffffff"/><path d="M66,8.42h0a5,5,0,0,1-.92.37l24.08,59h0a5,5,0,0,1,.92-.36Z" fill="#ffffff"/><path d="M44.15,23.56,60.42,7.81a5,5,0,0,1-.69-.72L43.46,22.84A4,4,0,0,1,44.15,23.56Z" fill="#ffffff"/><path d="M18.35,34.49a4,4,0,0,1,.33.87l18.78-7.47,0-.06a4,4,0,0,1-.33-.87L18.31,34.43Z" fill="#ffffff"/><path d="M46.17,87.63,86.93,74.26a5,5,0,0,1-.31-1L45.86,86.67A4,4,0,0,1,46.17,87.63Z" fill="#ffffff"/><path d="M36.58,95.41,40,91.66a4,4,0,0,1-.74-.67l-3.39,3.76A4,4,0,0,1,36.58,95.41Z" fill="#ffffff"/><circle cx="40.96" cy="25.96" r="3" transform="translate(-7.38 22.11) rotate(-27.81)" fill="#ffffff"/><circle cx="42.26" cy="88.38" r="3" transform="translate(-36.35 29.93) rotate(-27.81)" fill="#ffffff"/><circle cx="3" cy="25.96" r="3" transform="translate(-11.77 4.4) rotate(-27.81)" fill="#ffffff"/><circle cx="14.81" cy="36.36" r="3" transform="translate(-15.25 11.11) rotate(-27.81)" fill="#ffffff"/><circle cx="63.65" cy="4" r="4" transform="translate(5.49 30.16) rotate(-27.81)" fill="#ffffff"/><circle cx="96.8" cy="30.37" r="4" transform="translate(-2.99 48.68) rotate(-27.81)" fill="#ffffff"/><circle cx="91.48" cy="72.25" r="4" transform="translate(-23.14 51.03) rotate(-27.81)" fill="#ffffff"/><circle cx="33.55" cy="98.02" r="3" transform="translate(-41.86 26.98) rotate(-27.81)" fill="#ffffff"/></g></g></svg>