<svg xmlns="http://www.w3.org/2000/svg" viewBox="0 0 111.15 102.4"><title>pisces</title><g id="Layer_2" data-name="Layer 2"><g id="Layer_1-2" data-name="Layer 1"><path d="M18.32,82.16l-11,12.22a5,5,0,0,1,.74.67L19,82.84A4,4,0,0,1,18.32,82.16Z" fill="#ffffff"/><path d="M4.92,13.8,7.66,6.86a4,4,0,0,1-.93-.37L4,13.43A3.94,3.94,0,0,1,4.92,13.8Z" fill="#ffffff"/><path d="M13.33,22.78,10,6.76A4,4,0,0,1,9,7l3.37,16A4,4,0,0,1,13.33,22.78Z" fill="#ffffff"/><path d="M11,23.75,6.3,19.55a4,4,0,0,1-.68.74l4.73,4.2A4,4,0,0,1,11,23.75Z" fill="#ffffff"/><path d="M18,48.33,14.83,30.55a4,4,0,0,1-1,.18L17,48.5A4.94,4.94,0,0,1,18,48.33Z" fill="#ffffff"/><path d="M6.29,93.79l11.05-35.6a5,5,0,0,1-1-.3L5.33,93.5A5,5,0,0,1,6.29,93.79Z" fill="#ffffff"/><path d="M27,75.75,24.69,77.4a4,4,0,0,1,.42.91l2.35-1.65A4,4,0,0,1,27,75.75Z" fill="#ffffff"/><path d="M43.19,64.83l-9.47,6.93a4,4,0,0,1,.58.81l9.47-6.93A4,4,0,0,1,43.19,64.83Z" fill="#ffffff"/><path d="M55.2,60.33l-4.8,1.15a4,4,0,0,1,.23,1l4.8-1.15A4,4,0,0,1,55.2,60.33Z" fill="#ffffff"/><path d="M72.85,49.37l-10.78,7.8a4,4,0,0,1,.58.81l10.79-7.8A5,5,0,0,1,72.85,49.37Z" fill="#ffffff"/><path d="M85.2,44.35l-3.36.84a4.93,4.93,0,0,1,.24,1l3.35-.84A4,4,0,0,1,85.2,44.35Z" fill="#ffffff"/><path d="M93.23,32.24,90.15,40a4,4,0,0,1,.93.37l3.09-7.78A4,4,0,0,1,93.23,32.24Z" fill="#ffffff"/><path d="M102.86,31.73,99,29.94a4,4,0,0,1-.41.91l3.9,1.79A5,5,0,0,1,102.86,31.73Z" fill="#ffffff"/><path d="M105.55,43.14l.94-4a4.94,4.94,0,0,1-1-.23l-.94,4A4,4,0,0,1,105.55,43.14Z" fill="#ffffff"/><path d="M97.2,53.18l4.2-3.42a4,4,0,0,1-.63-.78l-4.2,3.42A4,4,0,0,1,97.2,53.18Z" fill="#ffffff"/><path d="M92.79,51.44l-1.68-4.1a4,4,0,0,1-.92.38l1.68,4.1A4,4,0,0,1,92.79,51.44Z" fill="#ffffff"/><circle cx="4.33" cy="98.4" r="4" fill="#ffffff"/><circle cx="30.82" cy="74.5" r="3" fill="#ffffff"/><circle cx="59.15" cy="59.9" r="3" fill="#ffffff"/><circle cx="89.15" cy="43.87" r="3" fill="#ffffff"/><circle cx="93.82" cy="55.29" r="3" fill="#ffffff"/><circle cx="104.15" cy="46.87" r="3" fill="#ffffff"/><circle cx="107.15" cy="34.25" r="4" fill="#ffffff"/><circle cx="77.15" cy="46.87" r="4" fill="#ffffff"/><circle cx="95.15" cy="28.75" r="3" fill="#ffffff"/><circle cx="21.33" cy="79.56" r="3" fill="#ffffff"/><circle cx="18.33" cy="53.29" r="4" fill="#ffffff"/><circle cx="3" cy="17.29" r="3" fill="#ffffff"/><circle cx="46.67" cy="62.9" r="3" fill="#ffffff"/><circle cx="13.65" cy="26.75" r="3" fill="#ffffff"/><circle cx="8.65" cy="3" r="3" fill="#ffffff"/></g></g></svg>