<svg xmlns="http://www.w3.org/2000/svg" viewBox="0 0 105.46 111.75"><title>sagittarius</title><g id="Layer_2" data-name="Layer 2"><g id="Layer_1-2" data-name="Layer 1"><path d="M91.62,40.36l7.59-4.05a4,4,0,0,1-.48-.88l-7.58,4A5,5,0,0,1,91.62,40.36Z" fill="#ffffff"/><path d="M23.83,96.27,7,95.28a4,4,0,0,1,0,1l16.85,1A4,4,0,0,1,23.83,96.27Z" fill="#ffffff"/><path d="M6.78,96.8a4,4,0,0,1-.42.91L27,107.51a4,4,0,0,1,.42-.91Z" fill="#ffffff"/><path d="M6.48,75.66,3.29,91.57a4,4,0,0,1,1,.19L7.46,75.85A4,4,0,0,1,6.48,75.66Z" fill="#ffffff"/><path d="M6.72,65c-.12,0-.23,0-.35,0L7,67.94a4,4,0,0,1,.72-.07h0l.29,0-.7-3.12A4,4,0,0,1,6.72,65Z" fill="#ffffff"/><path d="M9.42,43l-3.06,14a4,4,0,0,1,1,.2l3.06-14A4,4,0,0,1,9.42,43Z" fill="#ffffff"/><path d="M30,29.29,14.09,37.06a4,4,0,0,1,.44.9l15.89-7.77A4,4,0,0,1,30,29.29Z" fill="#ffffff"/><path d="M49.7,44.32,36.81,30.54a4,4,0,0,1-.73.69L49,45A4,4,0,0,1,49.7,44.32Z" fill="#ffffff"/><path d="M57.45,54.5l-2.75-4a3.93,3.93,0,0,1-.83.56l2.75,4A3.94,3.94,0,0,1,57.45,54.5Z" fill="#ffffff"/><path d="M69,49.63l-7,5.55a4,4,0,0,1,.63.78l7-5.55A4,4,0,0,1,69,49.63Z" fill="#ffffff"/><path d="M68,41.85a4,4,0,0,1-.74.68l2.17,2.42a4,4,0,0,1,.74-.68Z" fill="#ffffff"/><path d="M61.4,41l-6.29,4a4,4,0,0,1,.53.85l6.29-4A4,4,0,0,1,61.4,41Z" fill="#ffffff"/><path d="M55.39,13.74h.08l-1.91-7a4,4,0,0,1-.8.24l-.17,0,1.91,7A5,5,0,0,1,55.39,13.74Z" fill="#ffffff"/><path d="M55.07,23.49l-3,20.06a4,4,0,0,1,1,.15l3-20.07A5,5,0,0,1,55.07,23.49Z" fill="#ffffff"/><path d="M82.17,43.48,76,45.73a4,4,0,0,1,.34.94l6.17-2.25A5,5,0,0,1,82.17,43.48Z" fill="#ffffff"/><path d="M89.28,57.1a4,4,0,0,1,.59-.05l-1.59-10c-.13,0-.24.08-.37.11a5,5,0,0,1-.61.06l1.6,10A4,4,0,0,1,89.28,57.1Z" fill="#ffffff"/><path d="M93.87,62a4,4,0,0,1-.37.93l5.09,2A4,4,0,0,1,99,64Z" fill="#ffffff"/><path d="M83.14,72.39l5.11-7.78a4,4,0,0,1-.84-.54L82.3,71.85A5,5,0,0,1,83.14,72.39Z" fill="#ffffff"/><path d="M82.76,80.44a4.93,4.93,0,0,1-.88.47l2.84,5.37a3.94,3.94,0,0,1,.88-.47Z" fill="#ffffff"/><circle cx="56.29" cy="18.66" r="4" transform="matrix(0.98, -0.18, 0.18, 0.98, -2.44, 10.47)" fill="#ffffff"/><circle cx="33.75" cy="28" r="3" transform="translate(-4.5 6.55) rotate(-10.4)" fill="#ffffff"/><circle cx="7.75" cy="71.88" r="3" transform="translate(-12.85 2.58) rotate(-10.4)" fill="#ffffff"/><circle cx="6" cy="61.03" r="3" transform="translate(-10.92 2.09) rotate(-10.4)" fill="#ffffff"/><circle cx="10.75" cy="39.25" r="3" transform="translate(-6.91 2.59) rotate(-10.4)" fill="#ffffff"/><circle cx="52.04" cy="47.55" r="3" transform="translate(-7.73 10.17) rotate(-10.4)" fill="#ffffff"/><circle cx="3" cy="95.55" r="3" transform="translate(-17.2 2.11) rotate(-10.4)" fill="#ffffff"/><circle cx="59.29" cy="58.03" r="3" transform="translate(-9.5 11.66) rotate(-10.4)" fill="#ffffff"/><circle cx="80" cy="76.28" r="4" transform="translate(-12.45 15.69) rotate(-10.4)" fill="#ffffff"/><circle cx="87" cy="89.55" r="3" transform="translate(-14.74 17.18) rotate(-10.4)" fill="#ffffff"/><circle cx="30.75" cy="108.75" r="3" transform="translate(-19.13 7.34) rotate(-10.4)" fill="#ffffff"/><circle cx="27.75" cy="97" r="3" transform="translate(-17.05 6.6) rotate(-10.4)" fill="#ffffff"/><circle cx="65" cy="39.25" r="3" transform="translate(-6.02 12.38) rotate(-10.4)" fill="#ffffff"/><circle cx="52.04" cy="3" r="3" transform="translate(0.31 9.44) rotate(-10.4)" fill="#ffffff"/><circle cx="72.46" cy="47.55" r="3" transform="translate(-7.39 13.86) rotate(-10.4)" fill="#ffffff"/><circle cx="102.46" cy="34" r="3" transform="translate(-4.45 19.05) rotate(-10.4)" fill="#ffffff"/><circle cx="87" cy="42.25" r="4" transform="matrix(0.98, -0.18, 0.18, 0.98, -6.2, 16.4)" fill="#ffffff"/><circle cx="90" cy="61.03" r="3" transform="translate(-9.54 17.25) rotate(-10.4)" fill="#ffffff"/><circle cx="102.46" cy="65.88" r="3" transform="translate(-10.21 19.58) rotate(-10.4)" fill="#ffffff"/></g></g></svg>