<svg xmlns="http://www.w3.org/2000/svg" viewBox="0 0 105.16 128.48"><title>taurus</title><g id="Layer_2" data-name="Layer 2"><g id="Layer_1-2" data-name="Layer 1"><path d="M46.89,34.4l.25-.08L33.51,8.17a5,5,0,0,1-.69.4l-.19.06L46.25,34.76A4,4,0,0,1,46.89,34.4Z" fill="#ffffff"/><path d="M61.78,96.09,62,96,54.46,82l-.88.47,7.51,14A4,4,0,0,1,61.78,96.09Z" fill="#ffffff"/><path d="M50.21,53.45h.16l-1-11.5a4,4,0,0,1-.84.09h-.16l1,11.5A4,4,0,0,1,50.21,53.45Z" fill="#ffffff"/><path d="M41.78,63.63l5.4-3.57a4,4,0,0,1-.55-.84l-5.4,3.57A5,5,0,0,1,41.78,63.63Z" fill="#ffffff"/><path d="M43,72.16l-2.24-2.6a4.94,4.94,0,0,1-.79.61l2.23,2.59A4,4,0,0,1,43,72.16Z" fill="#ffffff"/><path d="M51.18,79.43,48.49,77.6a3.94,3.94,0,0,1-.61.8l2.69,1.83A3.94,3.94,0,0,1,51.18,79.43Z" fill="#ffffff"/><path d="M54.43,73.94a4,4,0,0,1-.63-.05l-.15,4.39c.12,0,.24,0,.37,0h0a4,4,0,0,1,.63.05l.15-4.39C54.68,73.92,54.56,73.94,54.43,73.94Z" fill="#ffffff"/><path d="M52.8,66.29a4,4,0,0,1,.84-.27L52,61l-.11.06a4,4,0,0,1-.84.27l1.68,5Z" fill="#ffffff"/><path d="M87.09,58.51a4,4,0,0,1-.25-.76L58,68.13c0,.06.07.12.1.18a4,4,0,0,1,.25.76L87.19,58.68C87.16,58.62,87.12,58.57,87.09,58.51Z" fill="#ffffff"/><path d="M98.42,58.92c0-.08.08-.16.12-.24l-3.86-1.15a4,4,0,0,1-.3,1l3.84,1.15A4,4,0,0,1,98.42,58.92Z" fill="#ffffff"/><path d="M87.75,122.39,66.61,102.11a4,4,0,0,1-.69.72l21.15,20.27A4,4,0,0,1,87.75,122.39Z" fill="#ffffff"/><path d="M5.76,22.49a4,4,0,0,1-.81.59L34,62.27a4.94,4.94,0,0,1,.8-.59Z" fill="#ffffff"/><circle cx="30.78" cy="4" r="4" transform="translate(1.05 12.92) rotate(-24.11)" fill="#ffffff"/><circle cx="37.36" cy="65.95" r="4" transform="translate(-23.68 21.01) rotate(-24.11)" fill="#ffffff"/><circle cx="90.74" cy="56.87" r="3" transform="translate(-15.32 42.03) rotate(-24.11)" fill="#ffffff"/><circle cx="3" cy="19.62" r="3" transform="translate(-7.75 2.94) rotate(-24.11)" fill="#ffffff"/><circle cx="48.52" cy="38.05" r="3" transform="translate(-11.31 23.14) rotate(-24.11)" fill="#ffffff"/><circle cx="50.21" cy="57.45" r="3" transform="translate(-19.09 25.52) rotate(-24.11)" fill="#ffffff"/><circle cx="54.43" cy="69.94" r="3" transform="translate(-23.82 28.33) rotate(-24.11)" fill="#ffffff"/><circle cx="54.02" cy="82.24" r="3" transform="translate(-28.88 29.24) rotate(-24.11)" fill="#ffffff"/><circle cx="63.41" cy="99.74" r="3" transform="translate(-35.21 34.6) rotate(-24.11)" fill="#ffffff"/><circle cx="102.16" cy="60.35" r="3" transform="translate(-15.74 46.99) rotate(-24.11)" fill="#ffffff"/><circle cx="90.26" cy="125.48" r="3" transform="translate(-43.38 47.81) rotate(-24.11)" fill="#ffffff"/><circle cx="45.05" cy="75.59" r="3" transform="translate(-26.95 24.99) rotate(-24.11)" fill="#ffffff"/></g></g></svg>